# xmcd
#
# Track frame offsets: 
#        150
#        38561
#        65670
#        95691
#        128426
#        158204
#        172404
#        245634
#        264702
#
# Disc length: 3821 seconds
#
# Revision: 0
# Processed by: cddbd v1.5.2PL0 Copyright (c) Steve Scherf et al.
# Submitted via: ExactAudioCopyFreeDBPlugin 1.0
#
DISCID=7f0eeb09
DTITLE=Naif - A Night at Schouwburg
DYEAR=2008
DGENRE=Retro
TTITLE0=Televisi
TTITLE1=Let's Go Disco
TTITLE2=Katakan Iya
TTITLE3=Nyali
TTITLE4=Ajojing
TTITLE5=Air dan Api
TTITLE6=Aku Rela
TTITLE7=Posesif
TTITLE8=Mobil Balap
EXTD=
EXTT0=
EXTT1=
EXTT2=
EXTT3=
EXTT4=
EXTT5=
EXTT6=
EXTT7=
EXTT8=
PLAYORDER=
